<svg id="Layer_1" data-name="Layer 1" xmlns="http://www.w3.org/2000/svg" viewBox="0 0 197.93 197.6"><defs><style>.cls-1{fill:#fea502;}</style></defs><path class="cls-1" d="M94.9,168.8H70c-4.55-1.19-9.13-2.29-13.66-3.57C12,152.71-16.5,113.86-16.47,66q0-44.5.1-89c0-1.75.15-3.5.23-5.33H19V-5.79c2.13-1.55,3.44-2.47,4.73-3.45,55.87-42.31,138.69-12.47,154.9,55.8.93,3.93,1.89,7.86,2.84,11.79V81.24a40.61,40.61,0,0,0-.94,6.23c-.07,24.3,0,48.6-.05,72.89,0,7.44,0,7.44-7.68,7.45l-26.27.05v-22c-2.13,1.45-3,2-3.72,2.55a99.55,99.55,0,0,1-43.48,19A38.6,38.6,0,0,0,94.9,168.8ZM83.13,6.13C48.19,5.77,19.07,34.49,18.8,69.6c-.27,34.84,28.32,64.07,63,64.37,35.25.31,64.53-28.13,64.86-63A64.17,64.17,0,0,0,83.13,6.13Z" transform="translate(16.47 28.8)"/></svg>